# xmcd CD database file
#
# Track frame offsets:
#	150
#	26003
#	39628
#	51933
#	70918
#	88513
#	110228
#	124503
#	134173
#	156428
#
# Disc length: 2289 seconds
#
# Revision: 0
# Processed by: cddbd v1.5PL3 Copyright (c) Steve Scherf et al.
# Submitted via: CDex 1.50beta10
#
DISCID=9308ef0a
DTITLE=Fenton Robinson - Blues in Progress
DYEAR=1988
DGENRE=Blues
TTITLE0=I Found Out Yesterday
TTITLE1=Schoolboy
TTITLE2=Slow Walkin'
TTITLE3=Can't Hold Out Much Longer
TTITLE4=Nightflight
TTITLE5=Sinner's Prayer
TTITLE6=Laundry Man
TTITLE7=Crazy, Crazy Lovin'
TTITLE8=I Lost My True Love
TTITLE9=The Feeling Is Gone
EXTD=YEAR: 1988
EXTT0=
EXTT1=
EXTT2=
EXTT3=
EXTT4=
EXTT5=
EXTT6=
EXTT7=
EXTT8=
EXTT9=
PLAYORDER=
